<?xml version="1.0" encoding="UTF-8"?>
<svg id="Layer_1" xmlns="http://www.w3.org/2000/svg" version="1.1" viewBox="0 0 1694.26 806.99">
  <!-- Generator: Adobe Illustrator 29.2.1, SVG Export Plug-In . SVG Version: 2.1.0 Build 116)  -->
  <defs>
    <style>
      .st0 {
        fill: none;
      }

      .st1 {
        fill: #007350;
      }

      .st2 {
        fill: #381e20;
      }

      .st3 {
        fill: #f4eeee;
      }

      .st4 {
        fill: #f04f23;
      }

      .st5 {
        fill: #cbb1b6;
      }
    </style>
  </defs>
  <rect width="1694.26" height="806.99"/>
  <g>
    <g>
      <path class="st3" d="M180.03,324.29h-21.89v-54.12h-19.58v-15.2h61.05v15.2h-19.58v54.12Z"/>
      <path class="st3" d="M261.94,278.56c.36,3.57.55,9,.55,16.3v29.43h-20.8v-33.99c0-2.88-.2-4.64-.61-5.29-.24-.32-.83-.57-1.76-.73-.93-.16-2.01-.24-3.22-.24l-2.07.12c-2.27.08-4.62.61-7.05,1.58v38.55h-20.8v-72.97l20.8-.85v14.23c0,5.84-.2,9.73-.61,11.68l.12.12c5.51-6.24,12.12-9.36,19.82-9.36,2.92,0,5.66.41,8.21,1.22,2.55.81,4.48,1.99,5.78,3.53.73.89,1.28,3.12,1.64,6.69Z"/>
      <path class="st3" d="M317.95,309.09c.73,0,2.07-.08,4.01-.24l1.82,12.53c-6.24,2.92-14.35,4.38-24.32,4.38-9.32,0-16.48-2.35-21.47-7.05-4.99-4.7-7.48-11.8-7.48-21.28,0-4.86.63-9.57,1.89-14.11,1.26-4.54,2.69-7.7,4.32-9.49,1.7-1.78,4.86-3.32,9.49-4.62,4.62-1.3,9.2-1.95,13.74-1.95,7.3,0,12.77,1.3,16.42,3.89,3.65,2.6,6.04,6.18,7.18,10.76,1.13,4.58,1.7,10.72,1.7,18.43-5.51.32-10.91.49-16.18.49h-17.27c0,2.6.55,4.54,1.64,5.84,1.09,1.3,2.65,2.13,4.68,2.49,2.03.36,4.86.55,8.51.55,2.03,0,5.8-.2,11.31-.61ZM291.92,284.89c-.24,1.87-.41,3.97-.49,6.32h6.32c3.81,0,6.57-.04,8.27-.12,0-3.89-.55-6.65-1.64-8.27-1.09-1.62-2.98-2.43-5.66-2.43-2.19,0-4.1.45-5.72,1.34-.49.24-.85,1.3-1.09,3.16Z"/>
    </g>
    <path class="st3" d="M175.77,371.73v44.39c0,6.16-.57,11.15-1.7,14.96-1.14,3.81-3.14,6.69-6.02,8.64-2.88,1.95-6.91,2.92-12.1,2.92-5.51,0-11.31-.53-17.39-1.58l1.82-13.99c2.27.08,4.86.04,7.78-.12,2.92-.16,4.58-.49,4.99-.97.49-.81.73-2.76.73-5.84v-48.41h21.89Z"/>
    <path class="st3" d="M220.53,441.05l-1.95-7.66c-3.73,6.08-8.92,9.12-15.57,9.12-5.43,0-9.87-1.52-13.32-4.56-3.45-3.04-5.17-7.32-5.17-12.83,0-3.41.99-6.39,2.98-8.94,1.99-2.55,4.72-4.36,8.21-5.41,4.54-1.3,11.55-2.03,21.04-2.19,0-5.35-.24-8.19-.73-8.51-.41-.32-1.7-.49-3.89-.49-1.38,0-3.28.08-5.72.24-3.89.16-9.16.61-15.81,1.34-.65-4.38-1.14-9.08-1.46-14.11,4.3-.89,8.8-1.64,13.5-2.25,4.7-.61,8.92-.91,12.65-.91,6.49,0,11.35,1.08,14.59,3.22,3.24,2.15,5.35,4.97,6.32,8.45.97,3.49,1.42,7.91,1.34,13.26l-.12,17.88.36,14.35h-17.27ZM216.76,427.67v-9h-.97c-6,0-9.32.32-9.97.97-.41.41-.71,1.01-.91,1.82-.2.81-.3,1.58-.3,2.31,0,1.95.44,3.28,1.34,4.01.89.73,2.27,1.09,4.14,1.09,2.11,0,4.34-.4,6.69-1.22Z"/>
    <path class="st3" d="M299.77,389.61c3.45,3.81,5.17,10.54,5.17,20.19,0,7.05-.71,13.07-2.13,18.06-1.42,4.99-3.02,8.17-4.8,9.55-2.11,1.7-5.23,2.96-9.36,3.77s-8.84,1.22-14.11,1.22c-4.06,0-8.6-.3-13.62-.91-5.03-.61-9.53-1.56-13.5-2.86v-70.54l21.04-.85v11.43c0,.65-.02,2.15-.06,4.5-.04,2.35-.14,4.32-.3,5.9-.16,1.58-.41,2.78-.73,3.59l.73.85c1.86-2.84,4.21-5.15,7.05-6.93,2.84-1.78,6.16-2.68,9.97-2.68,6.32,0,11.21,1.91,14.66,5.72ZM282.98,422.08c.36-3,.55-5.88.55-8.64,0-3.24-.14-5.8-.43-7.66-.29-1.86-.97-3.34-2.07-4.44-1.09-1.09-2.78-1.64-5.05-1.64-2.03,0-4.62.29-7.78.85v27.49c3,.49,6.12.73,9.36.73,2.35,0,3.73-.32,4.14-.97.49-.81.91-2.72,1.28-5.72Z"/>
    <path class="st3" d="M346.9,441.05l-1.95-7.66c-3.73,6.08-8.92,9.12-15.57,9.12-5.43,0-9.87-1.52-13.32-4.56-3.45-3.04-5.17-7.32-5.17-12.83,0-3.41.99-6.39,2.98-8.94,1.99-2.55,4.72-4.36,8.21-5.41,4.54-1.3,11.55-2.03,21.04-2.19,0-5.35-.24-8.19-.73-8.51-.41-.32-1.7-.49-3.89-.49-1.38,0-3.28.08-5.72.24-3.89.16-9.16.61-15.81,1.34-.65-4.38-1.14-9.08-1.46-14.11,4.3-.89,8.8-1.64,13.5-2.25,4.7-.61,8.92-.91,12.65-.91,6.49,0,11.35,1.08,14.59,3.22,3.24,2.15,5.35,4.97,6.32,8.45.97,3.49,1.42,7.91,1.34,13.26l-.12,17.88.36,14.35h-17.27ZM343.13,427.67v-9h-.97c-6,0-9.32.32-9.97.97-.41.41-.71,1.01-.91,1.82-.2.81-.3,1.58-.3,2.31,0,1.95.44,3.28,1.34,4.01.89.73,2.27,1.09,4.14,1.09,2.11,0,4.34-.4,6.69-1.22Z"/>
    <path class="st3" d="M374.26,368.08l20.8-.85v73.82h-20.8v-72.97Z"/>
    <g>
      <path class="st3" d="M422.78,363.23c-1.58-1.42-3.28-2.61-5.11-3.59-1.82-.97-3.18-1.38-4.07-1.22-.97.16-2.11.99-3.41,2.49-1.3,1.5-2.45,3.16-3.47,4.99-1.01,1.82-1.64,3.26-1.89,4.32,1.05,1.38,2.96,3.02,5.72,4.93,2.76,1.9,4.99,3.18,6.69,3.83,1.46-.97,3.26-2.98,5.41-6.02,2.15-3.04,3.06-5.17,2.74-6.39-.16-.81-1.03-1.93-2.61-3.34Z"/>
      <rect class="st3" x="406.37" y="385.11" width="20.8" height="55.95"/>
    </g>
    <path class="st3" d="M471.44,441.05l-1.95-7.66c-3.73,6.08-8.92,9.12-15.57,9.12-5.43,0-9.87-1.52-13.32-4.56-3.45-3.04-5.17-7.32-5.17-12.83,0-3.41.99-6.39,2.98-8.94,1.99-2.55,4.72-4.36,8.21-5.41,4.54-1.3,11.55-2.03,21.04-2.19,0-5.35-.24-8.19-.73-8.51-.41-.32-1.7-.49-3.89-.49-1.38,0-3.28.08-5.72.24-3.89.16-9.16.61-15.81,1.34-.65-4.38-1.14-9.08-1.46-14.11,4.3-.89,8.8-1.64,13.5-2.25,4.7-.61,8.92-.91,12.65-.91,6.49,0,11.35,1.08,14.59,3.22,3.24,2.15,5.35,4.97,6.32,8.45.97,3.49,1.42,7.91,1.34,13.26l-.12,17.88.36,14.35h-17.27ZM467.67,427.67v-9h-.97c-6,0-9.32.32-9.97.97-.41.41-.71,1.01-.91,1.82-.2.81-.3,1.58-.3,2.31,0,1.95.44,3.28,1.34,4.01.89.73,2.27,1.09,4.14,1.09,2.11,0,4.34-.4,6.69-1.22Z"/>
    <g>
      <path class="st3" d="M138.56,488.48h21.89v69.32h-21.89v-69.32Z"/>
      <path class="st3" d="M228.01,512.08c.36,3.57.55,9,.55,16.3v29.43h-20.8v-34.18c0-2.59-.2-4.21-.61-4.86-.65-.81-2.15-1.22-4.5-1.22-1.14,0-1.99.04-2.55.12-2.27.08-4.62.61-7.05,1.58v38.55h-20.8v-55.95h16.91l2.31,9.36c5.84-7.05,12.81-10.58,20.92-10.58,2.92,0,5.66.41,8.21,1.22,2.55.81,4.48,1.99,5.78,3.53.73.89,1.28,3.12,1.64,6.69Z"/>
      <path class="st3" d="M277.15,554.4c-4.58,3.16-11.09,4.74-19.52,4.74-5.92,0-12.73-.85-20.43-2.55.16-1.62.55-3.95,1.16-6.99s1.11-5.37,1.52-6.99c2.92.49,6.16.87,9.73,1.16,3.57.29,6.61.43,9.12.43,2.19,0,3.53-.12,4.01-.36.08-.08.18-.3.3-.67.12-.36.18-.75.18-1.16,0-1.62-1.01-2.72-3.04-3.28-.65-.16-3.12-.85-7.42-2.07-4.3-1.22-7.8-3.42-10.52-6.63-2.72-3.2-4.07-7.19-4.07-11.98,0-2.51.57-5.31,1.7-8.39,1.13-3.08,2.35-5.03,3.65-5.84.97-.65,3.32-1.32,7.05-2.01,3.73-.69,7.18-1.03,10.34-1.03,6.73,0,13.5.49,20.31,1.46,0,1.46-.2,3.91-.61,7.36-.41,3.45-.77,5.62-1.09,6.51-6.89-.89-12.45-1.34-16.66-1.34-2.19,0-3.61.12-4.26.36-.16.08-.32.3-.49.67-.16.36-.24.83-.24,1.4,0,1.14.36,1.95,1.09,2.43.73.57,2.63,1.26,5.72,2.07,3.65,1.05,6.79,2.15,9.43,3.28,2.63,1.14,4.94,2.84,6.93,5.11,1.99,2.27,2.98,5.19,2.98,8.76,0,7.22-2.29,12.41-6.87,15.57Z"/>
      <path class="st3" d="M317.34,534.82c0,1.46.04,2.98.12,4.56.08,1.58.32,2.57.73,2.98.57.57,2.55.85,5.96.85l4.14-.12c.73,3.89,1.09,8.39,1.09,13.5-1.54.57-3.79,1.09-6.75,1.58-2.96.49-5.78.73-8.45.73-5.59,0-9.91-1.24-12.95-3.71-3.04-2.47-4.56-6.3-4.56-11.49v-29.92h-9.12v-11.07l9.12-.85,5.47-13.38,15.2-.85v14.23h12.89v11.92h-12.89v21.04Z"/>
      <rect class="st3" x="337.41" y="501.86" width="20.8" height="55.95"/>
      <path class="st3" d="M355.44,479.99c-1.58-1.42-3.28-2.61-5.11-3.59-1.82-.97-3.18-1.38-4.07-1.22-.97.16-2.11.99-3.41,2.49-1.3,1.5-2.45,3.16-3.47,4.99-1.01,1.82-1.64,3.26-1.89,4.32,1.05,1.38,2.96,3.02,5.72,4.93,2.76,1.9,4.99,3.18,6.69,3.83,1.46-.97,3.26-2.98,5.41-6.02,2.15-3.04,3.06-5.17,2.74-6.39-.16-.81-1.03-1.93-2.61-3.34Z"/>
      <path class="st3" d="M394.94,534.82c0,1.46.04,2.98.12,4.56.08,1.58.32,2.57.73,2.98.57.57,2.55.85,5.96.85l4.14-.12c.73,3.89,1.09,8.39,1.09,13.5-1.54.57-3.79,1.09-6.75,1.58-2.96.49-5.78.73-8.45.73-5.59,0-9.91-1.24-12.95-3.71-3.04-2.47-4.56-6.3-4.56-11.49v-29.92h-9.12v-11.07l9.12-.85,5.47-13.38,15.2-.85v14.23h12.89v11.92h-12.89v21.04Z"/>
      <path class="st3" d="M470.59,501.86v55.95h-16.91l-2.31-9.36c-5.84,7.05-12.81,10.58-20.92,10.58-2.92,0-5.66-.41-8.21-1.22-2.55-.81-4.48-1.99-5.78-3.53-.73-.89-1.28-3.12-1.64-6.69-.36-3.57-.55-9-.55-16.3v-29.43h20.8v29.19c0,1.62.04,3.53.12,5.72.08,2.19.32,3.57.73,4.14.57.81,2.19,1.22,4.86,1.22l1.95-.12c2.27-.08,4.62-.61,7.05-1.58v-38.55h20.8Z"/>
      <path class="st3" d="M506.95,534.82c0,1.46.04,2.98.12,4.56.08,1.58.32,2.57.73,2.98.57.57,2.55.85,5.96.85l4.14-.12c.73,3.89,1.09,8.39,1.09,13.5-1.54.57-3.79,1.09-6.75,1.58-2.96.49-5.78.73-8.45.73-5.59,0-9.91-1.24-12.95-3.71-3.04-2.47-4.56-6.3-4.56-11.49v-29.92h-9.12v-11.07l9.12-.85,5.47-13.38,15.2-.85v14.23h12.89v11.92h-12.89v21.04Z"/>
      <path class="st3" d="M571.9,542.61c.73,0,2.07-.08,4.01-.24l1.82,12.53c-6.24,2.92-14.35,4.38-24.32,4.38-9.32,0-16.48-2.35-21.47-7.05-4.99-4.7-7.48-11.8-7.48-21.28,0-4.86.63-9.57,1.89-14.11,1.26-4.54,2.69-7.7,4.32-9.49,1.7-1.78,4.86-3.32,9.49-4.62,4.62-1.3,9.2-1.95,13.74-1.95,7.3,0,12.77,1.3,16.42,3.89,3.65,2.6,6.04,6.18,7.18,10.76,1.13,4.58,1.7,10.72,1.7,18.43-5.51.32-10.91.49-16.18.49h-17.27c0,2.6.55,4.54,1.64,5.84,1.09,1.3,2.65,2.13,4.68,2.49,2.03.36,4.86.55,8.51.55,2.03,0,5.8-.2,11.31-.61ZM545.87,518.4c-.24,1.87-.41,3.97-.49,6.32h6.32c3.81,0,6.57-.04,8.27-.12,0-3.89-.55-6.65-1.64-8.27-1.09-1.62-2.98-2.43-5.66-2.43-2.19,0-4.1.45-5.72,1.34-.49.24-.85,1.3-1.09,3.16Z"/>
    </g>
  </g>
  <g>
    <path class="st3" d="M1222.17,360.84c3.54-.67,6.39-1.5,8.56-2.5,2.08-3,3.62-5.29,4.62-6.87,2.92,3.25,6.06,5.69,9.44,7.31,1.3.62,166.37,1.91,167.17,1.81-1.17,6.42-2.75,11.87-4.75,16.37,1.83,2.17,4.69,4.56,8.56,7.19,3.87,2.62,7.27,4.48,10.19,5.56.75-.92,2.56-4.48,5.44-10.69,2.87-6.21,5.39-12.48,7.56-18.81,3.75.67,6.75,1,9,1,3.33,0,7.54-.75,12.62-2.25,5.08-1.5,9.46-3.5,13.12-6,1.67,1.75,3.23,3.17,4.69,4.25,1.46,1.08,3.5,2.02,6.12,2.81,2.62.79,5.94,1.19,9.94,1.19,4.5,0,8.6-.79,12.31-2.37,3.71-1.58,6.94-3.87,9.69-6.87,3.25,3,6.69,5.42,10.31,7.25,3.62,1.83,7.1,2.75,10.44,2.75,5.08,0,9.04-2.19,11.87-6.56,2.83-4.37,4.25-9.85,4.25-16.44,0-4.83-.77-9.14-2.31-12.94-1.54-3.79-3.73-6.75-6.56-8.87-2.83-2.12-6.08-3.19-9.75-3.19s-6.44.9-8.81,2.69c-2.37,1.79-5.06,4.48-8.06,8.06-2.5,2.92-4.69,5.25-6.56,7-1.87,1.75-4.21,3.23-7,4.44-2.79,1.21-6.06,1.81-9.81,1.81h-1.13c-3.58,0-6.58-.21-9-.62,3.33-4.67,5.92-9.33,7.75-14,0-4.42-1.61-7.75-4.81-10-3.21-2.25-7.52-3.37-12.94-3.37-7.33,0-15.12,1.79-23.37,5.37-.17,2.25,0,4.9.5,7.94.5,3.04,1.04,4.98,1.62,5.81,5.42,0,9.29,2.46,11.62,7.37-4,1-9.58,1.5-16.75,1.5-1.92,0-4.73-.12-8.44-.37-3.71-.25-7.27-.75-10.69-1.5l-1.13.75c-2.17,6.83-4.54,12.75-7.12,17.75h-.62c-.33-6.25-1.36-10.69-3.06-13.31-1.71-2.62-4.27-3.94-7.69-3.94-1,0-2.58.08-4.75.25-1.94.11-154.22-.18-155.11-.62-1.33-.67-2.5-1.75-3.5-3.25-1-1.5-2.17-3.79-3.5-6.87-2.5-6-4.69-10.91-6.56-14.75-1.87-3.83-4.31-7.87-7.31-12.12l-17.25,14.62c5.5,7.08,10.5,14.62,15,22.62-4.25.92-8.83,1.37-13.75,1.37-3.08,0-6.79-.21-11.12-.62-2.42,7.17-3.79,14.58-4.12,22.25,3.92,1.08,8.42,1.62,13.5,1.62,4.08,0,7.89-.33,11.44-1ZM1534.19,334.72c2.67,0,4.77.42,6.31,1.25,1.54.83,2.35,1.83,2.44,3-.33.42-1.17.77-2.5,1.06-1.33.29-2.75.44-4.25.44-2.17,0-4.33-.25-6.5-.75-2.17-.5-4-1.29-5.5-2.37,2.92-1.75,6.25-2.62,10-2.62Z"/>
    <path class="st3" d="M1204.61,518.01c-2.87-2.04-4.98-3.06-6.31-3.06-1,0-2.12.73-3.37,2.19-1.25,1.46-2.46,3.23-3.62,5.31-.58-1.25-2.21-2.81-4.87-4.69-2.67-1.87-4.67-2.81-6-2.81s-3,1.46-5,4.37c-2,2.92-3.25,5.25-3.75,7,1.08,1.25,2.92,2.77,5.5,4.56,2.58,1.79,4.71,3.06,6.37,3.81.83-.58,1.92-1.67,3.25-3.25,1.33-1.58,2.42-3.12,3.25-4.62,1.17,1.33,2.96,2.81,5.37,4.44,2.42,1.62,4.42,2.77,6,3.44,1.42-1,3.12-2.92,5.12-5.75,2-2.83,2.92-4.87,2.75-6.12-.25-1.17-1.81-2.77-4.69-4.81Z"/>
    <path class="st3" d="M1230.54,436.58l.75,7.37c.67,6.83,1.31,13.71,1.94,20.62.62,6.92,1.02,12.87,1.19,17.87-3.75.33-8.37.5-13.87.5-4.67,0-7.92-.6-9.75-1.81-1.83-1.21-2.75-3.56-2.75-7.06,0-1.17.04-2.08.13-2.75l-10.5-1.62c-2.33,5.08-5.62,8.56-9.87,10.44-4.25,1.87-9.62,2.81-16.12,2.81-1.75,0-3.67-.17-5.75-.5.17-5.33.25-9.58.25-12.75,0-10.41-.37-21.83-1.12-34.25l-20.12,1.12.75,25.37c.5,24.08,1.12,37.62,1.87,40.62,2.92,1.25,6.52,2.17,10.81,2.75,4.29.58,8.73.87,13.31.87,5.08,0,10.02-.58,14.81-1.75,4.79-1.17,9.31-3.5,13.56-7h1.12c2.08,2.75,4.89,4.9,8.44,6.44,3.54,1.54,7.19,2.31,10.94,2.31,12.08-.25,21-1.29,26.75-3.12,1.92-3.42,3.25-7.17,4-11.25.75-4.08,1.13-8.58,1.13-13.5,0-9.08-.58-23.37-1.75-42.87l-20.12,1.12Z"/>
    <path class="st3" d="M1315.09,519.89c-1.62-1.46-3.37-2.69-5.25-3.69-1.87-1-3.27-1.42-4.19-1.25-1,.17-2.17,1.02-3.5,2.56-1.33,1.54-2.52,3.25-3.56,5.12-1.04,1.87-1.69,3.35-1.94,4.44,1.08,1.42,3.04,3.1,5.87,5.06,2.83,1.96,5.12,3.27,6.87,3.94,1.5-1,3.35-3.06,5.56-6.19,2.21-3.12,3.14-5.31,2.81-6.56-.17-.83-1.06-1.98-2.69-3.44Z"/>
    <path class="st3" d="M1532.63,516.14c-1.62-1.46-3.37-2.69-5.25-3.69-1.87-1-3.27-1.42-4.19-1.25-1,.17-2.17,1.02-3.5,2.56-1.33,1.54-2.52,3.25-3.56,5.12-1.04,1.87-1.69,3.35-1.94,4.44,1.08,1.42,3.04,3.1,5.87,5.06,2.83,1.96,5.12,3.27,6.87,3.94,1.5-1,3.35-3.06,5.56-6.19,2.21-3.12,3.14-5.31,2.81-6.56-.17-.83-1.06-1.98-2.69-3.44Z"/>
    <path class="st3" d="M1546.07,468.27c-3.58-2.12-8.87-5.44-15.87-9.94l-4.37-2.87c-2.75-1.75-5.46-3.1-8.12-4.06-2.67-.96-5.54-1.44-8.62-1.44-1.5,0-3.12.13-4.87.37-.92,1.83-1.86,4.69-2.81,8.56-.96,3.87-1.61,7.4-1.94,10.56l.5.5,2.75.13c4.25.25,7.71.56,10.37.94,2.67.38,5.17,1.02,7.5,1.94,2.17.83,4.83,2.12,8,3.87l-7.75,1.75-3.12.75c-5.25,1.25-9.48,2.17-12.69,2.75-2.28.41-55.4.68-87.58.8-28.69-.19-93.99-.75-95.21-1.68-1.54-1.17-2.31-3.5-2.31-7,0-1.25.04-2.21.12-2.87l-10.62-1.62c-1.17,4.67-3.36,8.04-6.56,10.12-3.21,2.08-7.15,3.12-11.81,3.12-1.75,0-3.67-.17-5.75-.5.17-5.33.25-9.58.25-12.75,0-10.41-.37-21.83-1.12-34.25l-20.12,1.12.75,25.37c.5,24.08,1.13,37.62,1.87,40.62,2.92,1.25,6.52,2.17,10.81,2.75,4.29.58,8.73.87,13.31.87s8.64-.64,12.19-1.94c3.54-1.29,6.44-3.56,8.69-6.81h1c1.83,3.17,4.35,5.42,7.56,6.75,1.95.81,184.38,1.08,186.85.44,4-1.04,8.54-2.56,13.62-4.56,1.92-.75,4-1.54,6.25-2.37,5.92-2.08,11.33-3.12,16.25-3.12,1,0,2.58.08,4.75.25,1.83-4.25,3.14-8.02,3.94-11.31.79-3.29,1.31-7.31,1.56-12.06-1.5,0-4.04-1.06-7.62-3.19Z"/>
    <path class="st3" d="M1218.73,296.16c2.83,0,5.17-.81,7-2.44,1.83-1.62,2.75-4.14,2.75-7.56s-.94-6.46-2.81-8.87c-1.87-2.42-4.11-3.62-6.69-3.62-1.83,0-3.54.69-5.12,2.06-1.58,1.37-2.83,3.08-3.75,5.12-.92,2.04-1.37,4.06-1.37,6.06,0,2.75.92,4.98,2.75,6.69,1.83,1.71,4.25,2.56,7.25,2.56ZM1216.29,282.98c.71-.79,1.56-1.19,2.56-1.19,1.17.08,2.08.54,2.75,1.37.67.83.92,1.75.75,2.75-.08.75-.46,1.33-1.12,1.75-.67.42-1.46.62-2.37.62-1.08,0-2-.25-2.75-.75-.75-.5-1.08-1.21-1-2.12.08-.83.48-1.64,1.19-2.44Z"/>
    <path class="st3" d="M1412.21,327.28c1.75-.5,4.98-1.21,9.69-2.12,4.71-.92,8.19-1.46,10.44-1.62.17-.58.25-1.62.25-3.12,0-2.5-.33-4.67-1-6.5-3.5.42-7.19,1.11-11.06,2.06-3.87.96-7.31,2.11-10.31,3.44v.62c0,1.17.21,2.54.62,4.12.42,1.58.87,2.62,1.37,3.12Z"/>
    <path class="st3" d="M1471.95,300.79c2.83,0,5.17-.81,7-2.44,1.83-1.62,2.75-4.14,2.75-7.56s-.94-6.46-2.81-8.87c-1.87-2.42-4.1-3.62-6.69-3.62-1.83,0-3.54.69-5.12,2.06-1.58,1.37-2.83,3.08-3.75,5.12-.92,2.04-1.37,4.06-1.37,6.06,0,2.75.92,4.98,2.75,6.69,1.83,1.71,4.25,2.56,7.25,2.56ZM1469.51,287.6c.71-.79,1.56-1.19,2.56-1.19,1.17.08,2.08.54,2.75,1.37.67.83.92,1.75.75,2.75-.08.75-.46,1.33-1.13,1.75-.67.42-1.46.62-2.37.62-1.08,0-2-.25-2.75-.75-.75-.5-1.08-1.21-1-2.12.08-.83.48-1.64,1.19-2.44Z"/>
    <path class="st3" d="M1526.32,304.41c1.75-.5,4.98-1.21,9.69-2.12,4.71-.92,8.19-1.46,10.44-1.62.17-.58.25-1.62.25-3.12,0-2.5-.33-4.67-1-6.5-3.5.42-7.19,1.11-11.06,2.06-3.87.96-7.31,2.11-10.31,3.44v.62c0,1.17.21,2.54.62,4.12.42,1.58.87,2.62,1.37,3.12Z"/>
    <path class="st3" d="M1188.42,456.27c1.75-.5,4.98-1.21,9.69-2.12,4.71-.92,8.19-1.46,10.44-1.62.17-.58.25-1.62.25-3.12,0-2.5-.33-4.67-1-6.5-3.5.42-7.19,1.11-11.06,2.06-3.87.96-7.31,2.11-10.31,3.44v.62c0,1.17.21,2.54.62,4.12.42,1.58.87,2.62,1.37,3.12Z"/>
    <path class="st3" d="M1240.41,407.65c-1.83,0-3.54.69-5.12,2.06-1.58,1.37-2.83,3.08-3.75,5.12-.92,2.04-1.37,4.06-1.37,6.06,0,2.75.92,4.98,2.75,6.69,1.83,1.71,4.25,2.56,7.25,2.56,2.83,0,5.17-.81,7-2.44,1.83-1.62,2.75-4.14,2.75-7.56s-.94-6.46-2.81-8.87c-1.87-2.42-4.11-3.62-6.69-3.62ZM1242.66,421.65c-.67.42-1.46.63-2.37.63-1.08,0-2-.25-2.75-.75-.75-.5-1.08-1.21-1-2.12.08-.83.48-1.64,1.19-2.44.71-.79,1.56-1.19,2.56-1.19,1.17.08,2.08.54,2.75,1.37.67.83.92,1.75.75,2.75-.08.75-.46,1.33-1.13,1.75Z"/>
    <path class="st3" d="M1298.28,448.4v.62c0,1.17.21,2.54.62,4.12.42,1.58.87,2.62,1.37,3.12,1.75-.5,4.98-1.21,9.69-2.12,4.71-.92,8.19-1.46,10.44-1.62.17-.58.25-1.62.25-3.12,0-2.5-.33-4.67-1-6.5-3.5.42-7.19,1.11-11.06,2.06-3.87.96-7.31,2.11-10.31,3.44Z"/>
    <path class="st3" d="M1512.2,433.77v.62c0,1.17.21,2.54.62,4.12.42,1.58.87,2.62,1.37,3.12,1.75-.5,4.98-1.21,9.69-2.12,4.71-.92,8.19-1.46,10.44-1.62.17-.58.25-1.62.25-3.12,0-2.5-.33-4.67-1-6.5-3.5.42-7.19,1.11-11.06,2.06-3.87.96-7.31,2.11-10.31,3.44Z"/>
  </g>
  <g>
    <path class="st1" d="M1081.41,502.01l-26.45-5.77c-.2-2.53-.42-5.08-.67-7.66l24.11-15.98-24.93,8.3c-6.25-53.17-24.95-115.52-72.03-167.49l20.21-10.65-24.86,5.65c-1.86-1.95-3.76-3.88-5.7-5.8,0,0,0,0,0,0l15.36-25.2-20.93,19.88c-74.06-68.69-177.54-82.66-249.18-36.2l-16.73-24.96,10.02,29.57c-1.73,1.25-3.45,2.53-5.14,3.86l-25.26-12.02,19.61,16.7c-2.99,2.58-5.9,5.26-8.73,8.09-16.85,16.85-29.12,36.51-37,57.84l-23.1-8.67,20.94,14.96c-.89,2.74-1.71,5.5-2.46,8.29l-27.31,4.96,25.55,2.16c-6.59,29.46-5.64,61.16,2.43,92.5l-28.75,8.84,30.91-1.07c.65,2.18,1.32,4.36,2.04,6.54l-18.32,20.21,20.69-13.35c8.51,23.44,21.03,46.33,37.38,67.53l-20.35,12.16,24.47-6.97c1.79,2.2,3.61,4.38,5.48,6.54l-13.4,24.91,18.33-19.39c.92,1,1.84,2.01,2.77,3,20.14,21.35,44.76,37.22,71.1,48.97l-13.17,23.75,20.13-20.75c2.47,1.02,4.94,2.01,7.43,2.96l.78,26.17,5.61-23.8c32.41,11.62,66.29,17.83,96.93,20.95l-4.19,23.51,10.71-22.89c3,.27,5.96.51,8.88.72l9.75,25.73-2.5-25.25c48.83,2.91,84.84-1.38,84.84-1.38,26.79-3.55,37.28-16.01,43.1-43.1,0,0,8.96-40.6,5.66-95.73l25.97-1.21Z"/>
    <path class="st5" d="M854.15,528.28c-38.61-11.79-75.77-43.69-82.06-83.79-.42-2.68,1.37-4.51,1.72-2.66,5.45,29.05,28.58,53.43,54.4,66.8,12.06,6.28,25.08,10.62,38.36,12.66.06-.05.13-.09.19-.14,22.66,4.14,44.03,1.04,59.31-8.59,6.08,3.92,79,39.29,83.83,32.63,4.83-6.66-194-155.05-204.3-161.12,1.54-2.93,2.88-6.02,4-9.25,1.9-5.53,3.02-11.14,3.42-16.71l31.83-11.97-32.31-1.86c-3.35-23.67-19.51-44.67-43.67-52.98-34.31-11.81-71.7,6.42-83.52,40.73-8.38,24.34-49.54,174.25,82.86,210.55l-32.89,42.96c1.24.93,2.49,1.86,3.76,2.76,20.36-22.08,42.23-45.81,42.23-45.81,4.58-.17,9.28-.48,14-.91,0,0-15.95,35.61-28.2,63.83,1.35.7,2.71,1.39,4.08,2.07l37.45-67.47c16.96-2.43,33.37-6.44,45.52-11.72Z"/>
    <circle class="st2" cx="761.91" cy="342.93" r="10.59"/>
    <path class="st0" d="M971.09,302.64c-83.81-82.58-209-92.28-281-20.28-71.99,71.99-60.45,195.41,20.28,281,96.67,102.49,296.31,78.7,296.31,78.7,26.79-3.55,37.28-16.01,43.1-43.1,0,0,39.67-179.68-78.7-296.31Z"/>
    <g>
      <path class="st4" d="M849.12,182.59c-3.28-35.5-22.43-48.35-44.41-46.32-21.98,2.03-38.45,18.17-35.17,53.67.31,3.39.79,6.71,1.4,9.94l1.81,7.76c7.27,26.38,24.37,44.58,42.52,42.91,21.98-2.03,37.13-32.45,33.85-67.96Z"/>
      <path class="st4" d="M957.12,216.63c12.31-26.94,3.86-45.85-13.71-55.87-19.17-10.93-41.93-7.15-59.58,23.82-17.66,30.97-16.43,64.94,2.74,75.87,19.17,10.93,49.03-5.31,66.69-36.28.09-.16.17-.32.26-.47l3.61-7.07Z"/>
      <path class="st4" d="M1113.72,339.95c-11.48-26.4-37.67-22.23-52.88-17.07l-7.61,2.98c-2.48,1.11-3.92,1.9-3.92,1.9-30.82,16.23-47.8,44.59-38.01,63.96,9.96,19.7,43.82,22.62,75.64,6.54,31.82-16.08,35.58-38.08,26.78-58.32Z"/>
    </g>
  </g>
</svg>